# xmcd
#
# Track frame offsets:
#	150
#	26491
#	44240
#	68166
#	89613
#	113698
#	133203
#	155850
#
# Disc length: 2375 seconds
#
# Revision: 2
# Processed by: cddbd v1.5.2PL0 Copyright (c) Steve Scherf et al.
# Submitted via: audiograbber 1.83.01
#
DISCID=75094508
DTITLE=Bachman-Turner Overdrive - Classic Album Set [2016] [CD 6) - Freeways
DYEAR=1977
DGENRE=Rock
TTITLE0=Can We All Come Together
TTITLE1=Life Still Goes On (I'm Lonely)
TTITLE2=Shotgun Rider
TTITLE3=Just For You
TTITLE4=My Wheels Won't Turn
TTITLE5=Down, Down
TTITLE6=Easy Groove
TTITLE7=Freeways
EXTD=
EXTT0=
EXTT1=
EXTT2=
EXTT3=
EXTT4=
EXTT5=
EXTT6=
EXTT7=
PLAYORDER=
